<svg width="22" height="22" viewBox="0 0 22 22" fill="none" xmlns="http://www.w3.org/2000/svg">
<path d="M18.0005 5.53437V5.00019C18.0005 4.40685 17.8243 3.82654 17.4946 3.3332C17.1651 2.84012 16.6968 2.45574 16.1489 2.22871C15.6008 2.00168 14.9974 1.94213 14.4155 2.05781C13.8336 2.17356 13.299 2.45954 12.8794 2.8791C12.4598 3.29865 12.1739 3.83329 12.0581 4.41523C11.9424 4.99708 12.002 5.60054 12.229 6.14863C12.456 6.69652 12.8404 7.16477 13.3335 7.49433C13.8268 7.82397 14.4071 8.00019 15.0005 8.00019H16.0005C16.5528 8.00019 17.0005 8.44791 17.0005 9.00019C17.0005 9.55247 16.5528 10.0002 16.0005 10.0002H15.0005C14.0116 10.0002 13.0444 9.70682 12.2222 9.15742C11.4001 8.60802 10.7597 7.82677 10.3813 6.91328C10.003 5.9997 9.90328 4.99444 10.0962 4.0246C10.2891 3.05472 10.7661 2.16428 11.4653 1.46503C12.1646 0.765786 13.055 0.288827 14.0249 0.0958931C14.9947 -0.0970194 16 0.00267753 16.9136 0.381049C17.8271 0.759429 18.6083 1.39981 19.1577 2.22187C19.7071 3.04412 20.0005 4.01128 20.0005 5.00019V5.53437C20.0004 6.08657 19.5527 6.53437 19.0005 6.53437C18.4483 6.53437 18.0006 6.08657 18.0005 5.53437Z" fill="url(#paint0_linear_777_7)"/>
<path d="M12.3254 0.775465C12.792 0.480064 13.4098 0.618574 13.7053 1.08504C14.0007 1.55156 13.8621 2.16941 13.3957 2.46492L11.3264 3.77547C10.2784 4.43766 9.51279 5.46607 9.17989 6.66023C8.84709 7.85431 8.96939 9.12958 9.52364 10.2384C10.078 11.3473 11.0248 12.2108 12.1799 12.6612C13.3349 13.1116 14.6169 13.1168 15.7756 12.6759L18.0656 11.8057C18.7219 11.5568 19.2707 11.0851 19.6154 10.4737C19.9601 9.86234 20.079 9.14938 19.9523 8.45906C19.8257 7.76877 19.4613 7.14461 18.9221 6.69539C18.3828 6.24622 17.703 5.99991 17.0012 6.00007H16.0002C15.448 5.99992 15.0002 5.55226 15.0002 5.00007C15.0003 4.44794 15.4481 4.00023 16.0002 4.00007H17.0002L17.219 4.00496C18.3107 4.05237 19.3596 4.45634 20.2023 5.15828C21.1011 5.90695 21.709 6.94722 21.9201 8.09773C22.1312 9.2484 21.9322 10.4371 21.3576 11.4561C20.8189 12.4116 19.9816 13.161 18.9777 13.5928L18.7756 13.6749L16.4856 14.544C14.8635 15.1613 13.0703 15.155 11.4533 14.5245C9.83641 13.894 8.51166 12.6851 7.73555 11.1329C6.95952 9.58053 6.78717 7.79491 7.25313 6.12312C7.7191 4.45163 8.78929 3.01212 10.2561 2.08504L12.3254 0.775465Z" fill="url(#paint1_linear_777_7)"/>
<path d="M3.32471 15.0158C6.32502 14.4801 8.21838 14.9951 9.58838 15.9914C10.9524 16.9834 11.7348 18.6397 12.2495 20.1838C12.3402 20.4559 12.3095 20.7541 12.1655 21.0021C12.0216 21.2502 11.7778 21.4244 11.4966 21.4807C9.43867 21.8922 7.65927 21.9469 6.05323 21.093V21.0949C4.53465 20.3356 3.29589 18.7635 2.54346 16.2912C2.46032 16.0178 2.49875 15.7215 2.64795 15.4777C2.79722 15.2342 3.04347 15.066 3.32471 15.0158ZM8.4126 17.6086C7.72051 17.1053 6.69688 16.6861 4.86865 16.8293C5.42948 18.1068 6.12054 18.8325 6.78174 19.216L6.94776 19.3059L6.97412 19.3195C7.74341 19.7338 8.6492 19.8562 9.9253 19.7082C9.51432 18.7815 9.0223 18.052 8.4126 17.6086Z" fill="url(#paint2_linear_777_7)"/>
<path d="M8.30908 10.1125C8.79908 9.85781 9.40296 10.0493 9.65772 10.5393C9.91227 11.0292 9.72185 11.6332 9.23194 11.8879C6.58218 13.2656 4.75945 15.5856 3.58838 17.6232C3.0068 18.6352 2.59727 19.5588 2.3335 20.2268C2.20182 20.5602 2.10725 20.8289 2.04639 21.0109C2.016 21.1018 1.99386 21.1711 1.97998 21.216L1.9624 21.2746L1.9292 21.3723C1.74138 21.8427 1.22369 22.1041 0.726077 21.9621C0.195171 21.8104 -0.112888 21.2567 0.0385767 20.7258L1.00049 21.0002C0.107868 20.7452 0.044043 20.7264 0.0395532 20.7248V20.7219C0.0400349 20.7202 0.0407732 20.7176 0.0415064 20.715C0.0429481 20.7101 0.0449672 20.7036 0.0473657 20.6955C0.052312 20.6788 0.059783 20.6555 0.0688501 20.6262C0.0870818 20.5671 0.113389 20.4825 0.148928 20.3762C0.219975 20.1637 0.327209 19.8619 0.473147 19.4924C0.764681 18.7541 1.21538 17.7401 1.85498 16.6271C3.12641 14.4148 5.18889 11.7348 8.30908 10.1125Z" fill="url(#paint3_linear_777_7)"/>
<path d="M17.0005 7.00019C17.0005 6.44791 16.5525 6.00007 16.0002 6.00007C15.4479 6.00007 15.0005 6.44791 15.0005 7.00019C15.0005 7.55248 15.4482 8.00019 16.0005 8.00019C16.5528 8.00019 17.0005 7.55248 17.0005 7.00019ZM19.0005 7.00019C19.0005 8.65705 17.6573 10.0002 16.0005 10.0002C14.3436 10.0002 13.0005 8.65705 13.0005 7.00019C13.0005 5.34334 14.3433 4.00007 16.0002 4.00007C17.6571 4.00007 19.0005 5.34334 19.0005 7.00019Z" fill="url(#paint4_linear_777_7)"/>
<defs>
<linearGradient id="paint0_linear_777_7" x1="-0.268167" y1="21.534" x2="22.0786" y2="18.2634" gradientUnits="userSpaceOnUse">
<stop stop-color="#C229C0"/>
<stop offset="1" stop-color="#FC4B6A"/>
</linearGradient>
<linearGradient id="paint1_linear_777_7" x1="-0.268167" y1="21.534" x2="22.0786" y2="18.2634" gradientUnits="userSpaceOnUse">
<stop stop-color="#C229C0"/>
<stop offset="1" stop-color="#FC4B6A"/>
</linearGradient>
<linearGradient id="paint2_linear_777_7" x1="-0.268167" y1="21.534" x2="22.0786" y2="18.2634" gradientUnits="userSpaceOnUse">
<stop stop-color="#C229C0"/>
<stop offset="1" stop-color="#FC4B6A"/>
</linearGradient>
<linearGradient id="paint3_linear_777_7" x1="-0.268167" y1="21.534" x2="22.0786" y2="18.2634" gradientUnits="userSpaceOnUse">
<stop stop-color="#C229C0"/>
<stop offset="1" stop-color="#FC4B6A"/>
</linearGradient>
<linearGradient id="paint4_linear_777_7" x1="-0.268167" y1="21.534" x2="22.0786" y2="18.2634" gradientUnits="userSpaceOnUse">
<stop stop-color="#C229C0"/>
<stop offset="1" stop-color="#FC4B6A"/>
</linearGradient>
</defs>
</svg>
